<svg width="1024" height="1536" xmlns="http://www.w3.org/2000/svg" class="icon">

 <g>
  <title>background</title>
  <rect fill="none" id="canvas_background" height="1538" width="1026" y="-1" x="-1"/>
 </g>
 <g>
  <title>Layer 1</title>
  <path id="svg_1" fill="#333333" d="m226.05,459.76c-115.23,0 -208.98,-93.74 -208.98,-208.98s93.75,-208.98 208.98,-208.98s208.98,93.74 208.98,208.98s-93.74,208.98 -208.98,208.98zm0,-376.17c-92.18,0 -167.18,75 -167.18,167.18s75,167.18 167.18,167.18s167.18,-75 167.18,-167.18s-75,-167.18 -167.18,-167.18z"/>
  <path id="svg_2" fill="#333333" d="m205.15,323.92c-5.53,0 -10.85,-2.19 -14.78,-6.12l-41.8,-41.8c-8.16,-8.16 -8.16,-21.39 0,-29.55s21.39,-8.16 29.55,0l25.29,25.29l69.01,-86.26c7.2,-9.02 20.39,-10.46 29.37,-3.27c9.02,7.2 10.48,20.36 3.27,29.37l-83.59,104.49a20.897,20.897 0 0 1 -15.16,7.82c-0.39,0.02 -0.77,0.03 -1.16,0.03zm780.87,-52.25l-459.75,0c-11.55,0 -20.9,-9.36 -20.9,-20.9s9.35,-20.9 20.9,-20.9l459.76,0c11.55,0 20.9,9.36 20.9,20.9c-0.01,11.55 -9.36,20.9 -20.91,20.9z"/>
  <path id="svg_3" fill="#333333" d="m227.0481,1517.081405c-115.23,0 -208.98,-93.76 -208.98,-208.98s93.74,-208.98 208.98,-208.98s208.98,93.76 208.98,208.98s-93.74,208.98 -208.98,208.98zm0,-376.16c-92.18,0 -167.18,75 -167.18,167.18s75,167.18 167.18,167.18s167.18,-75 167.18,-167.18s-75,-167.18 -167.18,-167.18z"/>
  <path id="svg_4" fill="#333333" d="m206.1481,1381.2514c-5.53,0 -10.85,-2.18 -14.78,-6.12l-41.8,-41.8c-8.16,-8.16 -8.16,-21.39 0,-29.55s21.39,-8.16 29.55,0l25.29,25.29l69.01,-86.27c7.2,-8.98 20.39,-10.47 29.37,-3.27c9.02,7.22 10.48,20.37 3.27,29.39l-83.59,104.49a20.91,20.91 0 0 1 -15.16,7.8c-0.39,0.02 -0.77,0.04 -1.16,0.04zm780.87,-52.25l-459.75,0c-11.55,0 -20.9,-9.35 -20.9,-20.9s9.35,-20.9 20.9,-20.9l459.76,0c11.55,0 20.9,9.35 20.9,20.9s-9.36,20.9 -20.91,20.9z"/>
  <path id="svg_5" fill="#333333" d="m226.05,982.2c-115.23,0 -208.98,-93.76 -208.98,-208.98s93.74,-208.98 208.98,-208.98s208.98,93.76 208.98,208.98s-93.74,208.98 -208.98,208.98zm0,-376.16c-92.18,0 -167.18,75 -167.18,167.18s75,167.18 167.18,167.18s167.18,-75 167.18,-167.18s-75,-167.18 -167.18,-167.18z"/>
  <path id="svg_6" fill="#333333" d="m205.15,850.295598c-5.53,0 -10.85,-2.18 -14.78,-6.12l-41.8,-41.8c-8.16,-8.16 -8.16,-21.39 0,-29.55s21.39,-8.16 29.55,0l25.29,25.29l69.01,-86.27c7.2,-8.98 20.39,-10.47 29.37,-3.27c9.02,7.22 10.48,20.37 3.27,29.39l-83.59,104.49a20.91,20.91 0 0 1 -15.16,7.8c-0.39,0.02 -0.77,0.04 -1.16,0.04zm780.87,-52.25l-459.75,0c-11.55,0 -20.9,-9.35 -20.9,-20.9s9.35,-20.9 20.9,-20.9l459.76,0c11.55,0 20.9,9.35 20.9,20.9s-9.36,20.9 -20.91,20.9z"/>
 </g>
</svg>