<svg width="91" height="91" xmlns="http://www.w3.org/2000/svg">

 <g>
  <title>background</title>
  <rect fill="none" id="canvas_background" height="402" width="582" y="-1" x="-1"/>
 </g>
 <g>
  <title>Layer 1</title>
  <path fill="#262533" id="svg_2" d="m44.628,70.7c-0.293,2.567 -0.539,5.141 -0.863,7.704c-3.622,0.201 -7.24,0.437 -10.856,0.722c-3.768,0.299 -8.155,0.085 -11.738,1.324c-1.21,0.415 -1.434,2.37 0,2.681c3.727,0.811 7.932,0.159 11.738,0.098c4.003,-0.064 28.884,0.219 36.677,-0.368c3.44,-0.261 3.48,-5.175 0,-5.383c-7.307,-0.433 -14.857,0.26 -22.212,0.716c-0.032,-2.501 -0.153,-4.996 -0.477,-7.47c5.489,0.044 10.979,0.045 16.468,-0.025c4.875,-0.062 9.746,-0.186 14.615,-0.397c3.446,-0.148 7.779,0.503 10.604,-1.985c2.795,-2.463 1.864,-6.621 1.893,-9.92c0.038,-4.222 0.057,-8.443 0.035,-12.664c-0.051,-10.809 -0.299,-20.688 -0.747,-31.487c-0.058,-1.415 -1.168,-2.685 -2.656,-2.657c-28.578,0.53 -55.4,0.36 -83.907,-1.904c-3.255,-0.259 -3.873,3.812 -1.87,5.541c-0.586,17.955 -0.449,34.084 -0.948,52.046c-0.04,1.446 1.244,2.619 2.644,2.644c14.17,0.24 27.422,0.644 41.6,0.784zm39.936,-53.741c0.444,10.386 0.737,19.85 0.727,30.246c-0.005,4.873 0.231,16.662 -0.646,17.299c-0.506,0.369 -8.16,0.548 -11.163,0.647c-22.9,0.756 -44.872,-0.268 -67.77,-0.497c0.275,-16.808 0.255,-31.792 -0.83,-48.57c27.152,1.894 52.491,1.486 79.682,0.875z"/>
  <path id="svg_3" d="m35.352,55.821c2.927,1.638 7.128,5.345 10.733,4.29c4.385,-1.283 8.742,-4.434 12.772,-6.563c3.537,-1.867 6.119,-2.723 6.13,-7.014c0.017,-5.261 -0.063,-10.513 0.004,-15.774c0.013,-0.868 -0.597,-1.536 -1.376,-1.807c-5.582,-1.95 -10.712,-4.823 -15.816,-7.77c-1.07,-0.62 -2.103,-0.217 -2.713,0.537c-3.548,1.268 -7.018,4.032 -10.09,5.923c-2.05,1.261 -4.117,2.494 -6.171,3.749c-1.747,1.067 -1.967,1.491 -2.08,3.537c-0.137,2.53 -0.209,5.065 -0.316,7.597c-0.085,2.074 -0.517,4.388 -0.137,6.437c0.663,3.595 6.268,5.298 9.06,6.858zm-3.401,-6.427c-1.367,-1 -1.642,-1.241 -1.779,-3.069c-0.09,-1.211 0.086,-2.584 0.13,-3.798c0.087,-2.606 0.183,-5.212 0.255,-7.818c0.004,-0.003 0.009,-0.006 0.011,-0.009c2.07,1.675 4.683,2.919 6.898,4.199c2.097,1.212 4.611,3.204 7.182,3.472c-0.871,4.225 -0.844,8.928 -1.097,13.221c-1.306,-0.342 -2.5,-1.201 -4.013,-2.033c-2.44,-1.338 -5.347,-2.524 -7.587,-4.165zm29.371,-2.229c-0.741,2.174 -5.419,3.559 -7.277,4.478c-2.011,0.996 -4.051,2.204 -6.126,3.151c-0.029,-4.188 0.146,-8.7 -0.566,-12.78c1.924,-0.653 11.016,-6.208 13.961,-7.599c0.034,1.726 0.299,11.89 0.008,12.75zm-22.114,-18.125c1.955,-1.297 4.322,-2.604 6.276,-4.176c0.042,0.024 0.074,0.054 0.118,0.077c4.253,2.234 8.521,4.436 12.984,6.19c-1.397,0.678 -2.772,1.399 -4.132,2.174c-2.599,1.486 -5.44,3.76 -8.319,4.621c-2.765,0.826 -6.515,-1.952 -9.003,-3.146c-1.251,-0.602 -2.557,-1.267 -3.895,-1.81c1.997,-1.303 3.986,-2.613 5.971,-3.93z"/>
 </g>
</svg>